# xmcd
#
# Track frame offsets:
#	150
#	16884
#	29524
#	43436
#	62025
#	77703
#	94956
#	113910
#	129980
#	143096
#	159413
#	178376
#	199090
#	217967
#	236899
#
# Disc length: 3389 seconds
#
# Revision: 1
# Processed by: cddbd v1.5.1PL2 Copyright (c) Steve Scherf et al.
# Submitted via: audiograbber 1.83.01
#
DISCID=d80d3b0f
DTITLE=Various Artist - CBE2-10
DYEAR=1900
DGENRE=
TTITLE0=Toby Keith - How Do You Like Me Now
TTITLE1=Alan Jackson - www.Memory
TTITLE2=Dixie Chicks - Let 'Er Rip
TTITLE3=Lonestar - Amazed
TTITLE4=Jo Dee Messina - Bye Bye
TTITLE5=Tim McGraw - My Next Thirty Years
TTITLE6=Lee Ann Womack - I Hope You Dance
TTITLE7=George Strait - The Best Day
TTITLE8=Alecia Elliot - I'm Diggin' It
TTITLE9=George Jones - Choices
TTITLE10=Jessica Andrews - Unbreakable Heart
TTITLE11=Faith Hill and Tim McGraw - Just To Hear You Say That You Love Me
TTITLE12=Martina McBride - Whatever You Say
TTITLE13=Travis Tritt - I'ts A Great Day To Be Alive
TTITLE14=Jo Dee Messina - Stand Beside Me
EXTD=
EXTT0=
EXTT1=
EXTT2=
EXTT3=
EXTT4=
EXTT5=
EXTT6=
EXTT7=
EXTT8=
EXTT9=
EXTT10=
EXTT11=
EXTT12=
EXTT13=
EXTT14=
PLAYORDER=
